<svg data-logo="logo" xmlns="http://www.w3.org/2000/svg" viewBox="0 0 225 48">
        <g style="opacity: 1;" id="logogram" transform="translate(0, 3.5) rotate(0)"><path d="M39.1077 32.8531C36.2133 38.0618 30.3201 40.54 24.3612 40.54H0.452637C25.3415 37.4289 42.6749 24.9844 44.8971 7.65109C47.1193 24.9844 64.4526 37.4289 89.3415 40.54H65.433C59.4741 40.54 53.5808 38.0618 50.6864 32.8531C47.5536 27.2155 45.5577 20.8363 44.8971 13.8733C44.2365 20.8363 42.2405 27.2155 39.1077 32.8531Z" fill="#F3F2F2"></path><path d="M25.4349 31.0122C24.0388 31.7983 22.5701 32.5366 21.0324 33.2243C20.1589 30.2069 19.8374 27.0411 20.0938 23.8875C20.4329 19.7155 21.7727 15.6934 23.9946 12.1776C26.2165 8.66176 29.2518 5.76059 32.8317 3.73116C36.4116 1.70174 40.4257 0.606653 44.5182 0.542929C48.6108 0.479195 52.6555 1.44879 56.2941 3.36581C59.9328 5.28282 63.0531 8.08807 65.3785 11.5331C67.704 14.9782 69.1629 18.9567 69.6261 23.1162C70.0049 26.5184 69.708 29.9559 68.7618 33.2243C67.224 32.5366 65.7554 31.7982 64.3592 31.0122C64.9478 28.6226 65.1128 26.1368 64.8386 23.6738C64.4651 20.3196 63.2885 17.1114 61.4133 14.3333C59.5381 11.5553 57.0219 9.29305 54.0877 7.74718C51.1534 6.20128 47.8917 5.41942 44.5916 5.4708C41.2913 5.52219 38.0544 6.40527 35.1677 8.04176C32.2808 9.67829 29.8331 12.0178 28.0413 14.853C26.2496 17.6882 25.1692 20.9315 24.8957 24.2959C24.7119 26.5572 24.8965 28.8264 25.4349 31.0122Z" fill="#D4A017"></path></g>
        <g style="opacity: 1;" id="logotype" transform="translate(96, 1)"><path fill="#D4A017" d="M29.87 12.02L29.87 12.02Q30.40 10.84 30.63 10.84L30.63 10.84L30.71 10.84Q30.97 10.84 31.75 11.39Q32.54 11.94 32.54 12.42L32.54 12.42Q32.54 13.08 28.17 22.74Q23.79 32.39 23.15 33.56Q22.51 34.74 22.27 35.13Q22.03 35.52 21.62 36L21.62 36Q20.89 36.91 19.79 36.91L19.79 36.91Q19.35 36.91 19.01 37.02Q18.66 37.13 18.60 37.13L18.60 37.13Q18.05 37.13 18.05 36.87L18.05 36.87Q18.05 36.82 18.19 36.45Q18.34 36.09 22.10 28.16L22.10 28.16Q18.08 28.00 15.04 27.92L15.04 27.92Q12.12 31.59 9.74 35.61L9.74 35.61Q9.45 36.17 9.20 36.40Q8.94 36.63 8.50 36.63Q8.05 36.63 7.54 36.18Q7.03 35.73 7.03 35.13L7.03 35.13Q7.03 33.42 11.43 27.81L11.43 27.81Q9.37 27.81 8.81 27.92Q8.26 28.02 8.10 28.02L8.10 28.02Q7.64 28.02 7.64 27.24Q7.64 26.46 8.55 25.87Q9.47 25.28 11.01 25.28L11.01 25.28Q11.13 25.28 11.43 25.27L11.43 25.27Q12.49 25.22 13.60 25.18L13.60 25.18Q17.33 20.81 21.40 17.06Q25.47 13.32 28.44 11.82L28.44 11.82Q28.92 11.58 29.20 11.59Q29.48 11.60 29.87 12.02ZM28.68 14.43L28.68 14.43Q22.44 19.17 17.28 25.18L17.28 25.18Q20.30 25.25 23.40 25.44L23.40 25.44Q26.51 18.89 28.68 14.43ZM42.09 30.63L42.09 30.63Q42.42 30.63 42.49 31.13Q42.56 31.63 42.56 32.15Q42.56 32.68 42.45 32.89L42.45 32.89Q41.96 33.85 40.28 35.22Q38.61 36.60 37.10 36.60L37.10 36.60Q36.18 36.60 35.39 36.04Q34.61 35.49 34.61 34.10Q34.61 32.72 35.34 31.39L35.34 31.39Q31.10 36.70 28.70 36.70L28.70 36.70Q27.74 36.70 27.15 36.02Q26.56 35.33 26.56 34.61Q26.56 33.88 26.76 33.10Q26.97 32.33 27.20 31.71Q27.43 31.10 27.88 30.19Q28.34 29.28 28.56 28.87Q28.78 28.46 29.27 27.63Q29.75 26.81 30.55 25.40Q31.34 24.00 31.87 23.33Q32.39 22.65 32.88 22.64Q33.38 22.64 33.75 23.05Q34.13 23.46 34.13 23.71Q34.13 23.97 32.98 26.02L32.98 26.02Q29.60 32.14 29.60 33.15L29.60 33.15Q29.60 33.40 29.79 33.40L29.79 33.40Q30.61 33.40 33.87 29.85Q37.14 26.29 37.65 25.29Q38.16 24.29 38.65 23.61Q39.14 22.93 39.38 22.77L39.38 22.77Q40.11 22.29 41.27 22.26L41.27 22.26Q41.46 22.26 41.56 22.28Q41.67 22.29 41.80 22.57Q41.94 22.84 41.94 22.99L41.94 22.99Q41.79 23.47 40.58 25.54Q39.38 27.61 39.24 27.88L39.24 27.88Q37.22 32.05 37.22 33.32L37.22 33.32Q37.22 34.03 37.77 34.03L37.77 34.03Q38.76 33.90 40.16 32.45L40.16 32.45Q40.68 31.92 41.18 31.37Q41.68 30.82 41.80 30.73Q41.92 30.63 42.09 30.63ZM52.42 14.09L53.22 13.99L53.92 14.16Q54.07 14.16 54.19 14.31Q54.31 14.47 54.31 14.60Q54.31 14.74 53.95 15.34Q53.60 15.94 53.11 16.70Q52.62 17.46 52.59 17.53L52.59 17.53Q53.92 17.42 54.48 17.42Q55.03 17.42 55.24 17.50Q55.44 17.58 55.71 17.93Q55.97 18.28 56.19 18.46Q56.42 18.64 56.42 19.00Q56.42 19.35 55.98 19.60Q55.54 19.85 55.05 19.90L55.05 19.90Q51.08 20.29 50.67 20.31L50.67 20.31Q49.29 22.43 46.80 26.92Q44.32 31.40 44.16 32.53L44.16 32.53Q44.09 33.04 44.09 33.37L44.09 33.37Q44.09 34.03 44.79 34.03Q45.49 34.03 46.35 33.50Q47.20 32.96 47.92 32.33L47.92 32.33Q49.84 30.62 49.97 30.62L49.97 30.62Q50.42 30.62 50.42 32.15L50.42 32.15Q50.42 32.99 49.65 33.66L49.65 33.66Q47.92 35.15 46.74 35.90Q45.56 36.65 44.38 36.65L44.38 36.65Q44.13 36.65 43.91 36.60L43.91 36.60Q42.54 36.34 41.90 35.60Q41.26 34.85 41.26 33.59Q41.27 32.33 42.02 30.52Q42.76 28.72 43.89 26.69L43.89 26.69Q45.73 23.37 47.58 20.47L47.58 20.47L46.93 20.55Q44.95 20.77 44.62 20.77L44.62 20.77L44.47 20.77Q43.97 20.77 43.51 20.58Q43.05 20.38 43.05 20.09Q43.05 19.80 43.30 19.53Q43.55 19.25 43.60 19.10L43.60 19.10Q43.72 18.72 44.49 18.26Q45.27 17.80 45.67 17.77Q46.06 17.75 46.43 17.73Q46.79 17.71 47.25 17.70Q47.70 17.68 47.94 17.66L47.94 17.66L49.48 17.59Q50.91 15.44 51.45 14.83Q51.99 14.21 52.07 14.15Q52.16 14.09 52.42 14.09L52.42 14.09ZM60.58 22.98Q61.10 22.98 61.64 23.44Q62.17 23.90 62.17 24.85Q62.17 25.80 61.51 27.31Q60.84 28.82 59.68 30.39Q58.52 31.95 57.12 33.33Q55.73 34.70 54.12 35.58Q52.50 36.46 51.19 36.46Q49.87 36.46 49.07 35.63Q48.28 34.80 48.28 33.33Q48.28 31.85 49.01 30.05Q49.73 28.26 50.88 26.88Q52.02 25.51 53.36 24.41L53.36 24.41Q56.14 22.17 58.24 22.17L58.24 22.17Q59.18 22.17 59.66 22.64L59.66 22.64Q59.83 22.79 59.83 22.91L59.83 22.91L59.83 23.01Q60.07 22.98 60.58 22.98ZM58.86 25.25L58.86 25.25L58.74 25.25Q58.14 25.25 58.14 24.38L58.14 24.38Q56.89 24.79 55.53 25.81Q54.16 26.84 53.08 28.24L53.08 28.24Q50.90 31.04 50.86 32.98L50.86 32.98Q50.86 33.93 51.56 33.93Q52.26 33.93 53.65 33.01Q55.03 32.09 56.39 30.38Q57.75 28.67 58.42 27.41Q59.10 26.16 59.10 25.70Q59.10 25.25 58.86 25.25ZM65.40 31.30L65.40 31.30L65.18 31.76Q65.18 32.26 66.57 32.71Q67.97 33.16 69.63 33.16Q71.30 33.16 73.30 32.67Q75.30 32.17 76.78 31.45Q78.26 30.74 79.22 29.95Q80.19 29.16 80.19 28.58L80.19 28.58Q80.19 27.85 78.48 27.22Q76.77 26.58 73.51 25.82Q70.26 25.06 68.75 23.90Q67.23 22.74 67.23 21.07Q67.23 19.41 68.43 17.88Q69.63 16.36 71.55 15.18Q73.47 14.01 75.74 13.08L75.74 13.08Q80.44 11.19 84.46 11.19L84.46 11.19Q86.00 11.19 87.18 11.46L87.18 11.46Q89.43 11.99 89.43 12.86Q89.43 13.73 89.28 14.05Q89.13 14.36 89.03 14.47Q88.94 14.57 88.79 14.67Q88.65 14.77 88.58 14.83L88.58 14.83Q87.83 15.46 84.46 15.61L84.46 15.61Q83.30 15.66 83.19 15.73Q83.09 15.80 83.02 15.80Q82.94 15.80 82.84 15.66Q82.73 15.53 82.73 15.22Q82.73 14.91 83.40 14.09L83.40 14.09Q81.31 14.21 78.95 15.05Q76.58 15.89 74.84 16.94Q73.09 17.99 71.93 19.00Q70.77 20.02 70.77 20.44Q70.77 20.86 71.03 21.13L71.03 21.13Q71.74 21.90 75.01 22.74L75.01 22.74Q78.39 23.61 79.52 24.14Q80.65 24.67 81.39 25.15Q82.14 25.63 82.58 26.12L82.58 26.12Q83.62 27.32 83.62 28.55Q83.62 29.78 82.96 30.86Q82.31 31.93 80.98 32.94Q79.66 33.95 77.86 34.74L77.86 34.74Q73.93 36.50 68.50 36.50L68.50 36.50Q64.53 36.50 63.44 34.39L63.44 34.39Q63.15 33.86 63.15 33.29Q63.15 32.72 63.41 32.26Q63.68 31.80 64.05 31.56L64.05 31.56Q64.79 31.10 65.10 31.10Q65.40 31.10 65.40 31.30ZM96.80 22.98Q97.31 22.98 97.85 23.44Q98.39 23.90 98.39 24.85Q98.39 25.80 97.72 27.31Q97.05 28.82 95.89 30.39Q94.73 31.95 93.34 33.33Q91.94 34.70 90.33 35.58Q88.71 36.46 87.40 36.46Q86.08 36.46 85.29 35.63Q84.49 34.80 84.49 33.33Q84.49 31.85 85.22 30.05Q85.95 28.26 87.09 26.88Q88.24 25.51 89.57 24.41L89.57 24.41Q92.35 22.17 94.46 22.17L94.46 22.17Q95.40 22.17 95.88 22.64L95.88 22.64Q96.05 22.79 96.05 22.91L96.05 22.91L96.05 23.01Q96.29 22.98 96.80 22.98ZM95.07 25.25L95.07 25.25L94.95 25.25Q94.35 25.25 94.35 24.38L94.35 24.38Q93.11 24.79 91.74 25.81Q90.37 26.84 89.30 28.24L89.30 28.24Q87.11 31.04 87.07 32.98L87.07 32.98Q87.07 33.93 87.77 33.93Q88.48 33.93 89.86 33.01Q91.24 32.09 92.60 30.38Q93.96 28.67 94.64 27.41Q95.31 26.16 95.31 25.70Q95.31 25.25 95.07 25.25ZM112.49 30.63L112.49 30.63Q112.81 30.63 112.88 31.13Q112.95 31.63 112.95 32.15Q112.95 32.68 112.85 32.89L112.85 32.89Q112.35 33.85 110.68 35.22Q109.00 36.60 107.50 36.60L107.50 36.60Q106.57 36.60 105.79 36.04Q105.00 35.49 105.00 34.10Q105.00 32.72 105.74 31.39L105.74 31.39Q101.50 36.70 99.09 36.70L99.09 36.70Q98.13 36.70 97.54 36.02Q96.95 35.33 96.95 34.61Q96.95 33.88 97.16 33.10Q97.36 32.33 97.59 31.71Q97.82 31.10 98.28 30.19Q98.73 29.28 98.95 28.87Q99.17 28.46 99.66 27.63Q100.15 26.81 100.94 25.40Q101.74 24.00 102.26 23.33Q102.78 22.65 103.28 22.64Q103.77 22.64 104.15 23.05Q104.52 23.46 104.52 23.71Q104.52 23.97 103.38 26.02L103.38 26.02Q99.99 32.14 99.99 33.15L99.99 33.15Q99.99 33.40 100.18 33.40L100.18 33.40Q101.00 33.40 104.27 29.85Q107.53 26.29 108.04 25.29Q108.56 24.29 109.04 23.61Q109.53 22.93 109.77 22.77L109.77 22.77Q110.50 22.29 111.67 22.26L111.67 22.26Q111.85 22.26 111.96 22.28Q112.06 22.29 112.20 22.57Q112.33 22.84 112.33 22.99L112.33 22.99Q112.18 23.47 110.97 25.54Q109.77 27.61 109.63 27.88L109.63 27.88Q107.62 32.05 107.62 33.32L107.62 33.32Q107.62 34.03 108.16 34.03L108.16 34.03Q109.15 33.90 110.56 32.45L110.56 32.45Q111.07 31.92 111.57 31.37Q112.08 30.82 112.20 30.73Q112.32 30.63 112.49 30.63ZM126.95 22.00Q127.25 22.00 127.42 22.25Q127.59 22.50 127.59 22.77Q127.59 23.05 127.30 23.64Q127.00 24.23 126.35 25.39Q125.70 26.55 124.88 27.94Q124.06 29.33 123.52 30.28Q122.98 31.23 121.60 33.64L121.60 33.64Q118.81 38.56 117.41 41.31L117.41 41.31Q117.48 41.25 117.90 40.82Q118.31 40.39 118.62 40.07L118.62 40.07Q119.53 39.18 119.90 39.18L119.90 39.18Q120.02 39.18 120.13 39.20Q120.23 39.21 120.31 39.22Q120.38 39.23 120.48 39.28Q120.57 39.33 120.63 39.35Q120.69 39.37 120.78 39.44Q120.86 39.52 120.90 39.55Q120.93 39.57 121.02 39.67Q121.12 39.78 121.14 39.80Q121.17 39.83 121.27 39.95Q121.37 40.07 121.48 40.17Q121.58 40.27 121.58 40.49Q121.58 40.70 121.36 41.00Q121.13 41.30 120.59 41.77Q120.04 42.24 119.97 42.31L119.97 42.31Q115.80 46.39 115.08 46.39Q114.37 46.39 113.86 45.89Q113.36 45.38 113.36 44.75L113.36 44.75Q113.36 42.77 119.02 33.27L119.02 33.27Q119.10 33.11 119.16 33.01Q119.22 32.91 119.27 32.82L119.27 32.82Q118.08 34.17 116.28 35.40Q114.49 36.63 113.21 36.63Q111.94 36.63 111.30 35.85Q110.66 35.08 110.66 33.74Q110.66 32.41 111.45 30.80Q112.25 29.20 113.50 27.83L113.50 27.83Q116.06 25.03 118.55 23.69Q121.03 22.35 122.64 22.35Q124.24 22.35 124.62 23.40L124.62 23.40Q124.84 22.93 125.01 22.74Q125.17 22.55 125.91 22.28Q126.65 22.00 126.95 22.00ZM123.71 24.77L123.71 24.77Q123.42 24.55 122.88 24.55L122.88 24.55Q121.73 24.55 119.99 25.63Q118.25 26.70 117.22 27.73Q116.20 28.75 114.96 30.55Q113.73 32.34 113.73 33.23L113.73 33.23Q113.73 33.59 114.06 33.59L114.06 33.59Q114.86 33.59 117.02 31.92Q119.17 30.24 120.53 28.84Q121.89 27.44 123.71 24.77Z"></path></g>
        
      </svg>